<svg width="111" height="24" viewBox="0 0 111 24" fill="none" xmlns="http://www.w3.org/2000/svg">
<path d="M0.842773 23.97H25.6306V0.0300293H0.842773V23.97ZM20.8596 9.69656H15.6217V4.6379H20.8596V9.69656ZM5.61286 4.6379H10.8536V14.3035H20.8596V19.3622H5.61286V4.6379ZM41.7722 0.0300293C39.3208 0.0300293 36.9246 0.732064 34.8865 2.04735C32.8483 3.36263 31.2597 5.23208 30.3216 7.41932C29.3836 9.60659 29.1382 12.0133 29.6164 14.3352C30.0946 16.6572 31.275 18.79 33.0083 20.4641C34.7416 22.1382 36.95 23.2781 39.3542 23.7401C41.7584 24.2019 44.2504 23.9649 46.5151 23.0589C48.7798 22.1529 50.7154 20.6187 52.0773 18.6502C53.4392 16.6817 54.1661 14.3674 54.1661 12C54.1622 8.82651 52.8552 5.78407 50.5317 3.54006C48.2082 1.29605 45.0581 0.0337347 41.7722 0.0300293ZM41.7722 19.3622C40.2645 19.3622 38.7907 18.9304 37.5371 18.1214C36.2836 17.3125 35.3065 16.1627 34.7295 14.8174C34.1526 13.4722 34.0016 11.9919 34.2957 10.5637C34.5899 9.13563 35.3159 7.82383 36.382 6.79421C37.4481 5.76461 38.8063 5.06343 40.285 4.77936C41.7637 4.49529 43.2964 4.64109 44.6893 5.19831C46.0822 5.75553 47.2727 6.69915 48.1103 7.90988C48.948 9.12051 49.395 10.5439 49.395 12C49.3919 13.9517 48.5878 15.8226 47.1589 17.2026C45.73 18.5826 43.7929 19.3592 41.7722 19.3622ZM98.5174 0.0300293C96.0657 0.029852 93.6697 0.731718 91.6314 2.04689C89.5931 3.36206 88.0045 5.23145 87.0662 7.41867C86.1281 9.60584 85.8824 12.0127 86.3606 14.3347C86.8386 16.6567 88.019 18.7897 89.7523 20.4638C91.4855 22.1379 93.6939 23.2781 96.0986 23.74C98.502 24.2019 100.994 23.9649 103.259 23.059C105.524 22.153 107.459 20.6188 108.821 18.6503C110.184 16.6818 110.91 14.3675 110.91 12C110.906 8.8267 109.6 5.78436 107.277 3.54039C104.954 1.2964 101.803 0.0339867 98.5174 0.0300293ZM98.5174 19.3622C97.0099 19.3623 95.5361 18.9307 94.2821 18.1219C93.0284 17.313 92.0512 16.1633 91.4741 14.818C90.897 13.4728 90.7459 11.9925 91.0399 10.5643C91.334 9.13619 92.0599 7.8243 93.1259 6.79455C94.192 5.76484 95.5506 5.06357 97.0292 4.77943C98.5078 4.49528 100.04 4.64102 101.433 5.19822C102.827 5.75541 104.017 6.69903 104.855 7.90979C105.692 9.12051 106.139 10.5439 106.139 12C106.136 13.9515 105.332 15.8222 103.903 17.2022C102.475 18.5823 100.538 19.359 98.5174 19.3622ZM70.1443 0.0300293C67.693 0.0300293 65.2967 0.732064 63.2586 2.04735C61.2204 3.36263 59.6319 5.23208 58.6938 7.41932C57.7557 9.60659 57.5104 12.0133 57.9885 14.3352C58.4668 16.6572 59.6471 18.79 61.3804 20.4641C63.1137 22.1382 65.3221 23.2781 67.7263 23.7401C70.1305 24.2019 72.6225 23.9649 74.8872 23.0589C77.152 22.1529 79.0875 20.6187 80.4495 18.6502C81.8113 16.6817 82.5382 14.3674 82.5382 12C82.5344 8.82651 81.2273 5.78407 78.9038 3.54006C76.5803 1.29605 73.4302 0.0337347 70.1443 0.0300293ZM70.1443 19.3622C68.7396 19.3628 67.3621 18.9886 66.1637 18.2809C64.9653 17.5731 63.9927 16.5595 63.3532 15.3515C62.7139 14.1436 62.4324 12.7885 62.54 11.4359C62.6477 10.0832 63.1401 8.78563 63.9632 7.68626C64.7863 6.58694 65.9079 5.7286 67.2041 5.20603C68.5004 4.68344 69.921 4.51695 71.309 4.72492C72.6971 4.93289 73.9986 5.50723 75.0701 6.38455C76.1415 7.26187 76.9411 8.40809 77.3806 9.69656H70.1443V14.3035H77.3806C76.8772 15.7738 75.9074 17.0537 74.6084 17.9617C73.3096 18.8697 71.7477 19.3596 70.1443 19.3622Z" fill="#B4B7C9"/>
</svg>
